<svg width="13" height="12" viewBox="0 0 13 12" fill="none" xmlns="http://www.w3.org/2000/svg">
<g clip-path="url(#clip0_0_744)">
<path d="M6.5 1.33688C3.35918 1.33688 0.8125 3.56132 0.8125 6.30471C0.8125 9.0481 3.35918 11.2725 6.5 11.2725C9.64082 11.2725 12.1875 9.0481 12.1875 6.30471C12.1875 3.56132 9.64082 1.33688 6.5 1.33688ZM6.90625 8.69991C6.90625 8.7487 6.86055 8.78862 6.80469 8.78862H6.19531C6.13945 8.78862 6.09375 8.7487 6.09375 8.69991V5.68373C6.09375 5.63494 6.13945 5.59502 6.19531 5.59502H6.80469C6.86055 5.59502 6.90625 5.63494 6.90625 5.68373V8.69991ZM6.5 4.88533C6.34054 4.88249 6.1887 4.82516 6.07708 4.72565C5.96546 4.62614 5.90294 4.49238 5.90294 4.35306C5.90294 4.21375 5.96546 4.07999 6.07708 3.98048C6.1887 3.88097 6.34054 3.82364 6.5 3.8208C6.65946 3.82364 6.8113 3.88097 6.92292 3.98048C7.03454 4.07999 7.09706 4.21375 7.09706 4.35306C7.09706 4.49238 7.03454 4.62614 6.92292 4.72565C6.8113 4.82516 6.65946 4.88249 6.5 4.88533Z" fill="#4DAEFF"/>
</g>
<defs>
<clipPath id="clip0_0_744">
<rect width="13" height="11.355" fill="white" transform="translate(0 0.627197)"/>
</clipPath>
</defs>
</svg>
