<svg width="13" height="13" viewBox="0 0 13 13" fill="none" xmlns="http://www.w3.org/2000/svg">
<path d="M6.5 1.67017C3.35918 1.67017 0.8125 3.8946 0.8125 6.63799C0.8125 9.38138 3.35918 11.6058 6.5 11.6058C9.64082 11.6058 12.1875 9.38138 12.1875 6.63799C12.1875 3.8946 9.64082 1.67017 6.5 1.67017ZM6.90625 9.03319C6.90625 9.08198 6.86055 9.1219 6.80469 9.1219H6.19531C6.13945 9.1219 6.09375 9.08198 6.09375 9.03319V6.01701C6.09375 5.96822 6.13945 5.9283 6.19531 5.9283H6.80469C6.86055 5.9283 6.90625 5.96822 6.90625 6.01701V9.03319ZM6.5 5.21861C6.34054 5.21577 6.1887 5.15844 6.07708 5.05893C5.96546 4.95942 5.90294 4.82566 5.90294 4.68634C5.90294 4.54703 5.96546 4.41327 6.07708 4.31376C6.1887 4.21425 6.34054 4.15692 6.5 4.15408C6.65946 4.15692 6.8113 4.21425 6.92292 4.31376C7.03454 4.41327 7.09706 4.54703 7.09706 4.68634C7.09706 4.82566 7.03454 4.95942 6.92292 5.05893C6.8113 5.15844 6.65946 5.21577 6.5 5.21861Z" fill="#4DAEFF"/>
</svg>
