<svg width="13" height="12" viewBox="0 0 13 12" fill="none" xmlns="http://www.w3.org/2000/svg">
<path d="M6.5 1.00354C3.35918 1.00354 0.8125 3.22797 0.8125 5.97136C0.8125 8.71476 3.35918 10.9392 6.5 10.9392C9.64082 10.9392 12.1875 8.71476 12.1875 5.97136C12.1875 3.22797 9.64082 1.00354 6.5 1.00354ZM6.90625 8.36656C6.90625 8.41536 6.86055 8.45528 6.80469 8.45528H6.19531C6.13945 8.45528 6.09375 8.41536 6.09375 8.36656V5.35039C6.09375 5.30159 6.13945 5.26167 6.19531 5.26167H6.80469C6.86055 5.26167 6.90625 5.30159 6.90625 5.35039V8.36656ZM6.5 4.55199C6.34054 4.54914 6.1887 4.49181 6.07708 4.39231C5.96546 4.2928 5.90294 4.15903 5.90294 4.01972C5.90294 3.88041 5.96546 3.74664 6.07708 3.64713C6.1887 3.54762 6.34054 3.4903 6.5 3.48745C6.65946 3.4903 6.8113 3.54762 6.92292 3.64713C7.03454 3.74664 7.09706 3.88041 7.09706 4.01972C7.09706 4.15903 7.03454 4.2928 6.92292 4.39231C6.8113 4.49181 6.65946 4.54914 6.5 4.55199Z" fill="#4DAEFF"/>
</svg>
