<svg width="27" height="33" viewBox="0 0 27 33" fill="none" xmlns="http://www.w3.org/2000/svg">
<path d="M3 7.33331H13V25.6666H3V20.1666L5.5 19.5555L6.5 16.5L5.5 13.4444L3 12.8333V7.33331Z" fill="#D7D9E6"/>
<path d="M12.375 24.125H13.125V23.375V20.625V19.875H12.375H10.125H9.375V20.625V23.375V24.125H10.125H12.375ZM12.375 18.625H13.125V17.875V15.125V14.375H12.375H10.125H9.375V15.125V17.875V18.625H10.125H12.375ZM12.375 13.125H13.125V12.375V9.625V8.875H12.375H10.125H9.375V9.625V12.375V13.125H10.125H12.375ZM3.375 7.625H23.625C23.6703 7.625 23.7527 7.64592 23.84 7.75266C23.9308 7.86358 24 8.04097 24 8.25V13H23.7454C22.1942 13 20.885 14.2713 20.6622 15.9369C20.5955 16.4191 20.6153 16.9133 20.7212 17.3869C20.8271 17.8612 21.0182 18.3101 21.2879 18.7003C21.5577 19.0908 21.9028 19.4173 22.3066 19.6465C22.7115 19.8762 23.162 20 23.625 20C23.625 20 23.6251 20 23.6251 20H24V24.75C24 24.959 23.9308 25.1364 23.84 25.2473C23.7527 25.3541 23.6703 25.375 23.625 25.375H3.375C3.32967 25.375 3.2473 25.3541 3.15997 25.2473C3.06922 25.1364 3 24.959 3 24.75V20H3.37489C3.37493 20 3.37496 20 3.375 20C3.83796 20 4.28847 19.8762 4.69337 19.6465C5.09716 19.4173 5.44227 19.0908 5.71207 18.7003C5.98176 18.3101 6.17288 17.8612 6.27884 17.3869C6.38467 16.9133 6.40452 16.4191 6.33778 15.9369C6.11501 14.2713 4.80579 13 3.25462 13H3V8.25C3 8.04097 3.06922 7.86358 3.15997 7.75266C3.2473 7.64592 3.32968 7.625 3.375 7.625Z" stroke="black" stroke-width="1.5"/>
</svg>
