<svg width="27" height="28" viewBox="0 0 27 28" fill="none" xmlns="http://www.w3.org/2000/svg">
<path d="M8.63999 12.8856C8.63999 12.8856 11.625 13.9149 16.2 13.667L23.22 10.4269V12.5869L22.68 15.8269L19.98 17.987L12.42 18.883L8.09999 17.987L4.85999 16.367L3.23999 13.667L4.85999 11.507L8.63999 12.8856Z" fill="#D7D9E6"/>
<path d="M4.26937 15.4794L5.05744 17.0319C4.51744 17.5634 4.21875 18.1422 4.21875 18.7295C4.21875 20.8996 8.31431 22.9482 13.5 22.9482C18.6857 22.9482 22.7812 20.8996 22.7812 18.7295C22.7812 18.1422 22.4809 17.5651 21.9426 17.0336L22.7458 15.4929C23.8343 16.4041 24.4688 17.5077 24.4688 18.7295C24.4688 22.1501 19.4974 24.6357 13.5 24.6357C7.50263 24.6357 2.53125 22.1501 2.53125 18.7295C2.53125 17.501 3.1725 16.394 4.26937 15.4794V15.4794Z" fill="black"/>
<path d="M4.26937 10.4169L5.05744 11.9694C4.51744 12.5026 4.21875 13.0814 4.21875 13.667C4.21875 15.8371 8.31431 17.8857 13.5 17.8857C18.6857 17.8857 22.7812 15.8371 22.7812 13.667C22.7812 13.0797 22.4809 12.5026 21.9426 11.9711L22.7458 10.4304C23.8343 11.3416 24.4688 12.4452 24.4688 13.667C24.4688 17.0876 19.4974 19.5732 13.5 19.5732C7.50263 19.5732 2.53125 17.0876 2.53125 13.667C2.53125 12.4385 3.1725 11.3315 4.26937 10.4169V10.4169Z" fill="black"/>
<path d="M13.5 14.5107C7.50263 14.5107 2.53125 12.0251 2.53125 8.60449C2.53125 5.18393 7.50263 2.69824 13.5 2.69824C19.4974 2.69824 24.4688 5.18393 24.4688 8.60449C24.4688 12.0251 19.4974 14.5107 13.5 14.5107ZM13.5 12.8232C18.6857 12.8232 22.7812 10.7746 22.7812 8.60449C22.7812 6.43437 18.6857 4.38574 13.5 4.38574C8.31431 4.38574 4.21875 6.43437 4.21875 8.60449C4.21875 10.7746 8.31431 12.8232 13.5 12.8232Z" fill="black"/>
</svg>
