<svg width="26" height="27" viewBox="0 0 26 27" fill="none" xmlns="http://www.w3.org/2000/svg">
<path d="M18.7778 22.026L14.4444 23.4705L6.25923 21.5446L5.29626 17.6927L7.22219 16.2482H17.8148L20.7037 17.2112L20.2222 20.1001L18.7778 22.026Z" fill="#D7D9E6"/>
<path d="M21.6667 17.9592C21.6667 17.6392 21.6037 17.3222 21.4811 17.0266C21.3586 16.7309 21.1791 16.4623 20.9527 16.236C20.7264 16.0098 20.4576 15.8303 20.1619 15.7079C19.8662 15.5856 19.5493 15.5226 19.2292 15.5228H6.77087C6.45074 15.5226 6.13371 15.5856 5.83792 15.708C5.54212 15.8305 5.27336 16.01 5.04698 16.2364C4.82061 16.4628 4.64107 16.7315 4.51863 17.0273C4.39618 17.3231 4.33323 17.6401 4.33337 17.9603V18.5854C4.33337 19.5528 4.67896 20.4877 5.30621 21.2233C7.00379 23.2101 9.58863 24.1916 12.9957 24.1916C16.4039 24.1916 18.9898 23.2112 20.6895 21.2244C21.32 20.4884 21.6666 19.5512 21.6667 18.5821V17.9592V17.9592ZM6.76979 17.1478H19.2292C19.6766 17.1478 20.0395 17.5107 20.0395 17.9603V18.5832C20.0397 19.1644 19.8322 19.7264 19.4545 20.1681C18.0928 21.7585 15.9619 22.5655 12.9946 22.5655C10.0285 22.5655 7.89862 21.7585 6.54121 20.1681C6.16438 19.7269 5.95733 19.1656 5.95729 18.5854V17.9592C5.95758 17.7441 6.04316 17.5379 6.19527 17.3858C6.34737 17.2337 6.5536 17.1481 6.76871 17.1478H6.76979ZM18.4135 7.94487C18.4136 6.80407 18.0536 5.69235 17.3847 4.76823C16.7158 3.8441 15.7722 3.15475 14.6885 2.79847C13.6047 2.44218 12.4362 2.43716 11.3494 2.78411C10.2627 3.13107 9.31318 3.81228 8.63638 4.73062C8.55787 4.70576 8.47605 4.69297 8.39371 4.6927H5.68754C5.47205 4.6927 5.26539 4.77831 5.11302 4.93068C4.96064 5.08305 4.87504 5.28972 4.87504 5.5052V11.4614C4.87476 11.8528 4.9516 12.2404 5.10119 12.6021C5.25078 12.9638 5.47018 13.2925 5.74685 13.5694C6.02352 13.8462 6.35204 14.0659 6.71363 14.2157C7.07522 14.3656 7.4628 14.4427 7.85421 14.4427H8.12504V14.4384H8.13588C8.31942 14.4387 8.50001 14.3922 8.66064 14.3034C8.82127 14.2146 8.95665 14.0864 9.05403 13.9308C9.1514 13.7752 9.20756 13.5974 9.21722 13.4141C9.22688 13.2308 9.18972 13.0481 9.10924 12.8831C9.02876 12.7182 8.9076 12.5764 8.7572 12.4712C8.60679 12.366 8.43208 12.3009 8.24952 12.2819C8.06696 12.2628 7.88257 12.2906 7.71372 12.3626C7.54487 12.4345 7.39711 12.5483 7.28437 12.6931C7.04977 12.5843 6.85124 12.4106 6.71225 12.1925C6.57325 11.9744 6.49962 11.7211 6.50004 11.4625V11.1927H7.31037C7.72204 11.1927 8.10446 11.0605 8.41538 10.8374C9.04196 11.8308 9.97445 12.5936 11.0723 13.0108C12.1702 13.4281 13.3739 13.4773 14.5021 13.1509C15.6304 12.8245 16.6219 12.1402 17.3274 11.2012C18.0329 10.2622 18.414 9.11936 18.4135 7.94487V7.94487ZM7.58012 7.83004C7.57854 7.90659 7.57854 7.98316 7.58012 8.0597V9.29579C7.58012 9.36762 7.55159 9.4365 7.5008 9.4873C7.45001 9.53809 7.38112 9.56662 7.30929 9.56662H6.50004V6.31879H7.58121V7.83004H7.58012ZM9.20512 8.04129V7.84845C9.23048 6.85152 9.64758 5.9047 10.3661 5.21311C11.0846 4.52152 12.0466 4.14083 13.0438 4.15351C14.041 4.16619 14.993 4.57122 15.6937 5.28086C16.3943 5.9905 16.7872 6.94761 16.7872 7.94487C16.7872 8.94213 16.3943 9.89925 15.6937 10.6089C14.993 11.3185 14.041 11.7235 13.0438 11.7362C12.0466 11.7489 11.0846 11.3682 10.3661 10.6766C9.64758 9.98504 9.23048 9.03823 9.20512 8.04129V8.04129Z" fill="black"/>
</svg>
