<svg width="25" height="25" viewBox="0 0 25 25" fill="none" xmlns="http://www.w3.org/2000/svg">
<path d="M12.9102 4.63917C11.1719 4.63624 8.99415 5.18556 6.84571 6.30372C4.70069 7.42189 3.0005 8.88673 2.00245 10.3174C1.00391 11.7432 0.733895 13.0713 1.22511 14.0186C1.71681 14.9609 2.95997 15.5029 4.70265 15.5029C6.44532 15.5078 8.62306 14.9561 10.7666 13.8428C12.915 12.7246 14.6143 11.2549 15.6104 9.82911C16.6113 8.40333 16.875 7.07521 16.3867 6.12794C15.8936 5.18556 14.6533 4.63917 12.9102 4.63917V4.63917ZM17.3975 8.0713C17.2266 8.81837 16.8555 9.58497 16.333 10.332C15.2295 11.9092 13.4277 13.4473 11.1719 14.6192C8.91602 15.7959 6.62599 16.3867 4.70216 16.3867C3.79395 16.3867 2.95216 16.25 2.24268 15.9619L2.75977 16.958C3.25196 17.9053 4.49171 18.4473 6.23536 18.4473C7.97852 18.4473 10.1563 17.9004 12.2998 16.7822C14.4483 15.669 16.1475 14.1992 17.1436 12.7686C18.1397 11.3428 18.4131 10.0147 17.9199 9.07228L17.3975 8.0713ZM18.8037 8.89161C19.3506 10.1953 18.9111 11.7822 17.8662 13.2715C16.9434 14.5947 15.5322 15.8789 13.7842 16.9531C14.3262 17.0117 14.8926 17.041 15.4688 17.041C17.8857 17.041 20.0733 16.5234 21.6162 15.7178C23.1641 14.9121 24.0137 13.8574 24.0137 12.793C24.0137 11.7285 23.1641 10.6738 21.6162 9.86818C20.8301 9.45802 19.8731 9.12111 18.8037 8.89161V8.89161ZM24.0137 14.9854C23.5156 15.5664 22.832 16.0791 22.0264 16.499C20.3174 17.3877 18.0127 17.9199 15.4688 17.9199C14.4336 17.9199 13.4375 17.832 12.5049 17.666C11.3721 18.2373 10.2344 18.6621 9.14063 18.9404C9.19923 18.9746 9.25782 19.0039 9.3213 19.0381C10.8643 19.8438 13.0518 20.3613 15.4688 20.3613C17.8857 20.3613 20.0733 19.8438 21.6162 19.0381C23.1641 18.2324 24.0137 17.1777 24.0137 16.1133V14.9854Z" fill="#BE9428"/>
</svg>
