<svg width="48" height="48" viewBox="0 0 48 48" fill="none" xmlns="http://www.w3.org/2000/svg">
<circle cx="24" cy="24" r="24" fill="white"/>
<path fill-rule="evenodd" clip-rule="evenodd" d="M23.5208 14.125C21.1682 14.125 19.0245 14.9021 17.7562 15.537C17.6417 15.5943 17.5349 15.6505 17.4354 15.7047C17.2385 15.812 17.0708 15.912 16.9375 16L18.3802 18.124L19.0594 18.3943C21.7135 19.7333 25.2729 19.7333 27.9276 18.3943L28.6984 17.9943L30.063 16C29.7803 15.8156 29.4863 15.6491 29.1828 15.5016C27.9213 14.8734 25.8292 14.125 23.5208 14.125ZM20.1651 16.5292C19.6542 16.4336 19.1496 16.3069 18.6542 16.15C19.8422 15.6224 21.613 15.0625 23.5203 15.0625C24.8417 15.0625 26.0911 15.3313 27.1245 15.6719C25.9135 15.8422 24.6213 16.1312 23.3901 16.487C22.4213 16.7672 21.289 16.737 20.1651 16.5292V16.5292ZM28.4776 19.1667L28.35 19.2312C25.4297 20.7042 21.5568 20.7042 18.6364 19.2312L18.5156 19.1698C14.1292 23.9828 10.7802 32.8734 23.5208 32.8734C36.2604 32.8734 32.8297 23.8167 28.4776 19.1667ZM22.9792 23.5C22.7029 23.5 22.4379 23.6097 22.2426 23.8051C22.0472 24.0004 21.9375 24.2654 21.9375 24.5417C21.9375 24.8179 22.0472 25.0829 22.2426 25.2782C22.4379 25.4736 22.7029 25.5833 22.9792 25.5833V23.5ZM24.0208 22.4583V21.9375H22.9792V22.4583C22.4266 22.4583 21.8967 22.6778 21.506 23.0685C21.1153 23.4592 20.8958 23.9891 20.8958 24.5417C20.8958 25.0942 21.1153 25.6241 21.506 26.0148C21.8967 26.4055 22.4266 26.625 22.9792 26.625V28.7083C22.7637 28.7084 22.5536 28.6416 22.3777 28.5173C22.2017 28.393 22.0687 28.2172 21.9969 28.0141C21.9509 27.8838 21.855 27.7772 21.7304 27.7176C21.6057 27.658 21.4625 27.6504 21.3323 27.6964C21.202 27.7424 21.0954 27.8382 21.0358 27.9628C20.9762 28.0875 20.9686 28.2307 21.0146 28.3609C21.1582 28.7672 21.4243 29.1189 21.7761 29.3676C22.128 29.6164 22.5483 29.75 22.9792 29.75V30.2708H24.0208V29.75C24.5734 29.75 25.1033 29.5305 25.494 29.1398C25.8847 28.7491 26.1042 28.2192 26.1042 27.6667C26.1042 27.1141 25.8847 26.5842 25.494 26.1935C25.1033 25.8028 24.5734 25.5833 24.0208 25.5833V23.5C24.4739 23.5 24.8599 23.7891 25.0036 24.1943C25.025 24.2606 25.0594 24.3219 25.1048 24.3747C25.1503 24.4274 25.2058 24.4706 25.2682 24.5015C25.3306 24.5324 25.3986 24.5505 25.4681 24.5547C25.5376 24.5588 25.6073 24.549 25.6729 24.5258C25.7386 24.5026 25.799 24.4665 25.8504 24.4196C25.9019 24.3727 25.9434 24.3159 25.9725 24.2526C26.0016 24.1894 26.0178 24.1209 26.02 24.0513C26.0222 23.9817 26.0105 23.9124 25.9854 23.8474C25.8417 23.4412 25.5757 23.0894 25.2238 22.8407C24.872 22.5919 24.4517 22.4583 24.0208 22.4583ZM24.0208 26.625V28.7083C24.2971 28.7083 24.562 28.5986 24.7574 28.4032C24.9527 28.2079 25.0625 27.9429 25.0625 27.6667C25.0625 27.3904 24.9527 27.1254 24.7574 26.9301C24.562 26.7347 24.2971 26.625 24.0208 26.625Z" fill="#5531FB"/>
</svg>
