<svg width="27" height="28" viewBox="0 0 27 28" fill="none" xmlns="http://www.w3.org/2000/svg">
<path d="M8.4375 17.7273C8.4375 17.7273 9.2639 15.1803 13.5 14.9507L17.4375 16.0614L19.4138 18.5803L19.125 20.5038V23.2804L11.8125 23.8357H9L8.4375 17.7273Z" fill="#D7D9E6"/>
<path d="M10.1247 8.84197C10.1247 8.84197 9.82604 6.85025 14.0621 6.62073L15.1872 7.17604L16.3122 8.84197V9.95259L15.7496 11.6185L12.3746 12.7292L11.2496 11.0632L10.1247 8.84197Z" fill="#D7D9E6"/>
<path d="M13.425 13.3215C15.45 13.3215 17.025 11.6926 17.025 9.69345C17.025 7.69433 15.375 6.13947 13.35 6.13947C11.325 6.13947 9.75 7.76838 9.75 9.69345C9.75 11.6926 11.4 13.3215 13.425 13.3215ZM13.35 7.62029C13.425 7.62029 13.425 7.62029 13.35 7.62029C14.55 7.62029 15.525 8.58283 15.525 9.76749C15.525 10.9522 14.55 11.8407 13.35 11.8407C12.15 11.8407 11.25 10.8781 11.25 9.76749C11.25 8.58283 12.225 7.62029 13.35 7.62029V7.62029Z" fill="black"/>
<path d="M24.5254 12.8773C23.1004 11.6186 21.2254 10.9522 19.2754 11.0263H18.6754C18.5254 11.6186 18.3004 12.1369 18.0004 12.5811C18.4504 12.5071 18.8254 12.5071 19.2754 12.5071C20.7004 12.4331 22.1254 12.8773 23.2504 13.6918V19.0227H24.7504V13.0994L24.5254 12.8773Z" fill="black"/>
<path d="M17.55 6.28786C17.925 5.39936 18.975 4.95511 19.95 5.32532C20.85 5.69553 21.3 6.73211 20.925 7.69465C20.625 8.36102 19.95 8.80527 19.275 8.80527C19.125 8.80527 18.9 8.80527 18.75 8.73123C18.825 9.10143 18.825 9.47164 18.825 9.76781V10.2121C18.975 10.2121 19.125 10.2861 19.275 10.2861C21.15 10.2861 22.65 8.80527 22.65 7.02827C22.65 5.17724 21.15 3.69641 19.35 3.69641C18.15 3.69641 17.1 4.28874 16.5 5.32532C16.875 5.54745 17.25 5.84361 17.55 6.28786V6.28786Z" fill="black"/>
<path d="M8.99963 12.6553C8.69963 12.2111 8.47463 11.6928 8.32463 11.1004H7.72463C5.77463 11.0264 3.89963 11.6928 2.47463 12.8774L2.24963 13.0995V19.0229H3.74963V13.6919C4.94963 12.8774 6.29963 12.4332 7.72463 12.5072C8.17463 12.5072 8.62463 12.5813 8.99963 12.6553Z" fill="black"/>
<path d="M7.72507 10.2117C7.87507 10.2117 8.02507 10.2117 8.17507 10.1376V9.69337C8.17507 9.32316 8.17507 8.95296 8.25007 8.65679C8.10007 8.73083 7.87507 8.73083 7.72507 8.73083C6.75007 8.73083 5.92507 7.91638 5.92507 6.95384C5.92507 5.9913 6.75007 5.17685 7.72507 5.17685C8.47507 5.17685 9.15007 5.62109 9.45007 6.28747C9.75007 5.91726 10.2001 5.54705 10.5751 5.25089C9.60007 3.69602 7.57507 3.17773 6.00007 4.14027C4.42507 5.1028 3.90007 7.10192 4.87507 8.65679C5.47507 9.61933 6.52507 10.2117 7.72507 10.2117V10.2117Z" fill="black"/>
<path d="M20.075 17.5256L19.925 17.3035C18.425 15.6746 16.325 14.712 14.075 14.7861C11.825 14.712 9.65 15.6746 8.15 17.3035L8 17.5256V23.1528C8 23.8191 8.525 24.4115 9.275 24.4115H18.875C19.55 24.4115 20.15 23.8191 20.15 23.1528V17.5256H20.075ZM18.575 22.9306H9.5V18.0439C10.7 16.8592 12.35 16.2669 14.075 16.2669C15.725 16.1929 17.375 16.8592 18.575 18.0439V22.9306Z" fill="black"/>
</svg>
