<svg width="28" height="27" viewBox="0 0 28 27" fill="none" xmlns="http://www.w3.org/2000/svg">
<ellipse cx="14" cy="13.4697" rx="14" ry="13.4697" fill="white"/>
<path d="M8.78644 9.61129C8.78644 9.30429 8.9132 9.00986 9.13883 8.79277C9.36446 8.57569 9.67048 8.45374 9.98956 8.45374H16.707C17.0527 8.45374 17.3842 8.58585 17.6286 8.82103C17.8731 9.0562 18.0104 9.37516 18.0104 9.70775V10.0959C18.7114 10.3344 19.2135 10.9776 19.2135 11.7335V16.7495C19.2135 17.21 19.0234 17.6517 18.6849 17.9773C18.3465 18.3029 17.8875 18.4859 17.4088 18.4859H10.5911C10.1125 18.4859 9.65346 18.3029 9.31502 17.9773C8.97657 17.6517 8.78644 17.21 8.78644 16.7495V9.70775H8.79045C8.78774 9.67566 8.7864 9.64348 8.78644 9.61129V9.61129ZM17.2083 9.70775C17.2083 9.44151 16.9837 9.22544 16.707 9.22544H9.98956C9.8832 9.22544 9.78119 9.26609 9.70598 9.33845C9.63077 9.41081 9.58852 9.50895 9.58852 9.61129C9.58852 9.71362 9.63077 9.81176 9.70598 9.88412C9.78119 9.95649 9.8832 9.99714 9.98956 9.99714H17.2083V9.70775ZM16.0052 14.2415C15.8988 14.2415 15.7968 14.2821 15.7216 14.3545C15.6464 14.4269 15.6041 14.525 15.6041 14.6273C15.6041 14.7297 15.6464 14.8278 15.7216 14.9002C15.7968 14.9725 15.8988 15.0132 16.0052 15.0132H17.2083C17.3147 15.0132 17.4167 14.9725 17.4919 14.9002C17.5671 14.8278 17.6094 14.7297 17.6094 14.6273C17.6094 14.525 17.5671 14.4269 17.4919 14.3545C17.4167 14.2821 17.3147 14.2415 17.2083 14.2415H16.0052Z" fill="#FC6B21"/>
</svg>
