<svg width="23" height="25" viewBox="0 0 23 25" fill="none" xmlns="http://www.w3.org/2000/svg">
<path d="M11.1591 13.6925C9.73919 11.5624 9.79894 2.9389 15.6808 2.61609L21.8778 8.86431L21.8778 20.2174L21.0995 22.9228L18.2594 23.6328L15.6808 22.9228L14.7092 16.5326L14.7092 14.4025L11.1591 13.6925Z" fill="#008CFF"/>
<path d="M9.58655 0.552295C10.0321 0.194822 10.5863 0 11.1575 0C11.7288 0 12.2829 0.194822 12.7285 0.552295L21.3756 7.49005C21.669 7.7254 21.9057 8.02365 22.0683 8.36277C22.2309 8.70189 22.3152 9.07322 22.3151 9.44931V22.035C22.3151 22.7008 22.0506 23.3394 21.5798 23.8102C21.109 24.281 20.4704 24.5455 19.8046 24.5455H16.4574C15.7916 24.5455 15.153 24.281 14.6822 23.8102C14.2114 23.3394 13.9469 22.7008 13.9469 22.035V15.3405C13.9469 15.1185 13.8588 14.9057 13.7018 14.7488C13.5449 14.5918 13.332 14.5037 13.1101 14.5037H9.20497C8.98303 14.5037 8.77018 14.5918 8.61325 14.7488C8.45632 14.9057 8.36815 15.1185 8.36815 15.3405V22.035C8.36815 22.7008 8.10366 23.3394 7.63286 23.8102C7.16206 24.281 6.52352 24.5455 5.85771 24.5455H2.51045C1.84463 24.5455 1.20609 24.281 0.735293 23.8102C0.264493 23.3394 0 22.7008 0 22.035V9.44931C0 8.68837 0.345884 7.96759 0.939464 7.49116L9.58655 0.55341V0.552295ZM11.6808 1.85773C11.5324 1.73875 11.3478 1.67393 11.1575 1.67393C10.9673 1.67393 10.7827 1.73875 10.6342 1.85773L1.98716 8.79548C1.88935 8.87385 1.8104 8.97319 1.75614 9.08617C1.70187 9.19914 1.67367 9.32286 1.67363 9.44819V22.0339C1.67363 22.4969 2.04852 22.8707 2.51045 22.8707H5.85771C6.07964 22.8707 6.29249 22.7825 6.44942 22.6256C6.60636 22.4687 6.69452 22.2558 6.69452 22.0339V15.3394C6.69452 14.6736 6.95901 14.035 7.42981 13.5642C7.90061 13.0934 8.53915 12.8289 9.20497 12.8289H13.1101C13.4399 12.8289 13.7664 12.8939 14.0711 13.0201C14.3757 13.1464 14.6525 13.3314 14.8857 13.5646C15.1188 13.7978 15.3037 14.0747 15.4298 14.3794C15.5559 14.6841 15.6207 15.0107 15.6205 15.3405V22.035C15.6205 22.498 15.9954 22.8718 16.4574 22.8718H19.8046C20.0266 22.8718 20.2394 22.7837 20.3963 22.6267C20.5533 22.4698 20.6414 22.2569 20.6414 22.035V9.44931C20.6415 9.32407 20.6135 9.20041 20.5594 9.08744C20.5054 8.97447 20.4266 8.87508 20.329 8.79659L11.6819 1.85884L11.6808 1.85773Z" fill="black"/>
</svg>
