<svg width="25" height="26" viewBox="0 0 25 26" fill="none" xmlns="http://www.w3.org/2000/svg">
<path d="M9.72106 24.0314C7.67089 14.8698 18.7138 9.15696 23.0918 8.91669L20.7664 14.1487L23.0917 15.8927L22.5104 18.7994L20.1262 20.5083L15.5343 21.1248L14.3717 24.6128L9.72106 24.0314Z" fill="#D7D9E6"/>
<path d="M12.0602 16.2763C10.1947 16.2763 8.68567 14.8229 8.68567 12.9975C8.68567 11.1721 10.1947 9.70715 12.0602 9.70715C13.9256 9.70715 15.399 11.1721 15.399 12.9975C15.399 14.8229 13.9256 16.2763 12.0602 16.2763" stroke="black"/>
<path d="M22.777 15.7416C22.5513 15.3928 22.2305 15.044 21.8146 14.8231C21.4819 14.6604 21.268 14.3929 21.0779 14.079C20.4719 13.0791 20.8284 11.7653 21.8383 11.1723C23.0266 10.5096 23.4068 9.03302 22.7176 7.88197L21.9215 6.51002C21.2442 5.35897 19.759 4.95204 18.5827 5.62639C17.5371 6.18447 16.1944 5.81242 15.5884 4.82414C15.3983 4.49859 15.2914 4.14979 15.3151 3.80099C15.3508 3.34755 15.2082 2.91736 14.9943 2.56856C14.5547 1.8477 13.7586 1.35938 12.8793 1.35938H11.2039C10.3365 1.38263 9.54045 1.8477 9.10081 2.56856C8.87506 2.91736 8.74435 3.34755 8.76812 3.80099C8.79188 4.14979 8.68494 4.49859 8.49483 4.82414C7.88885 5.81242 6.54618 6.18447 5.51244 5.62639C4.32424 4.95204 2.85087 5.35897 2.16171 6.51002L1.36561 7.88197C0.688337 9.03302 1.06856 10.5096 2.24488 11.1723C3.25486 11.7653 3.61132 13.0791 3.01722 14.079C2.81522 14.3929 2.60134 14.6604 2.26865 14.8231C1.86466 15.044 1.5082 15.3928 1.31808 15.7416C0.87845 16.4625 0.902214 17.3694 1.34185 18.1251L2.16171 19.5203C2.60134 20.2644 3.4212 20.7295 4.27671 20.7295C4.6807 20.7295 5.15598 20.6133 5.53621 20.3807C5.83326 20.1831 6.18972 20.1133 6.58182 20.1133C7.75814 20.1133 8.74435 21.0783 8.76812 22.2294C8.76812 23.5664 9.86126 24.6128 11.2396 24.6128H12.8555C14.222 24.6128 15.3151 23.5664 15.3151 22.2294C15.3508 21.0783 16.337 20.1133 17.5133 20.1133C17.8935 20.1133 18.25 20.1831 18.5589 20.3807C18.9391 20.6133 19.4025 20.7295 19.8184 20.7295C20.662 20.7295 21.4819 20.2644 21.9215 19.5203L22.7533 18.1251C23.181 17.3461 23.2167 16.4625 22.777 15.7416" stroke="black" stroke-width="2"/>
</svg>
