<svg width="23" height="22" viewBox="0 0 23 22" fill="none" xmlns="http://www.w3.org/2000/svg">
<path d="M6.50177 13.8746C6.50177 13.8746 -2.66801 5.39585 2.84285 5.0934L8.11932 0.702759V7.28869H21.2912L21.2912 9.87631V13.8746L20.5594 14.9987L15.437 21.1923L14.7053 13.8746H6.50177Z" fill="#D7D9E6"/>
<path d="M21.1272 13.3484H0.24044C0.108378 13.3484 0.000327959 13.4564 0.000327959 13.5885V15.3893C0.000327959 15.5214 0.108378 15.6294 0.24044 15.6294H18.4049L14.0739 21.122C13.9509 21.2781 14.0619 21.5122 14.263 21.5122H16.439C16.5861 21.5122 16.7241 21.4462 16.8172 21.3291L21.8836 14.9031C22.3788 14.2728 21.9316 13.3484 21.1272 13.3484ZM21.8505 6.26507L3.06818 6.51636L8.01708 0.772506C8.14013 0.616434 8.02908 0.382324 7.82799 0.382324H5.65197C5.5049 0.382324 5.36684 0.448355 5.27379 0.56541L0.207425 6.99141C-0.287807 7.62171 0.159402 8.54614 0.960777 8.54614H21.8505C21.9826 8.54614 22.0907 8.43809 22.0907 8.30603V6.50518C22.0907 6.37312 21.9826 6.26507 21.8505 6.26507Z" fill="black"/>
</svg>
