<svg width="28" height="29" viewBox="0 0 28 29" fill="none" xmlns="http://www.w3.org/2000/svg">
<ellipse cx="14" cy="14.1217" rx="14" ry="14.1217" fill="white"/>
<path d="M13.6354 8.52027C13.5193 8.51986 13.4029 8.51997 13.2861 8.52048C12.7242 8.52311 12.1533 8.538 11.5775 8.55956L11.744 9.29649C12.3437 9.22811 13.0011 9.17719 13.6584 9.15173C14.0145 9.13793 14.3685 9.13065 14.7118 9.13248C15.7418 9.1379 16.6763 9.22515 17.2877 9.46411L17.5492 9.56636L17.4325 9.82348C16.5795 11.7029 16.3823 13.5161 16.5159 15.2951C16.5819 13.1838 17.452 11.3059 18.5941 8.89858C17.0399 8.63807 15.3765 8.5261 13.6354 8.52024V8.52027ZM14.4581 9.66862C14.2016 9.66882 13.9401 9.67406 13.6787 9.68419C12.4556 9.73156 11.2369 9.87632 10.4425 10.0423C11.3298 11.7025 12.0476 13.3664 12.5111 14.9886C12.5688 14.9867 12.6265 14.9871 12.6841 14.9899C12.802 14.9958 12.9187 15.0119 13.0326 15.037C12.5608 13.5154 12.0235 12.1121 11.3555 10.7109L11.2045 10.3943L11.5475 10.3331C12.4091 10.1792 13.2983 10.1197 14.1447 10.1194C14.2011 10.1194 14.2574 10.1196 14.3134 10.1201C14.8512 10.1248 15.3695 10.1529 15.8497 10.1952L16.1741 10.2237L16.0795 10.538C15.5307 12.3606 15.4232 14.3178 15.7335 16.1801C15.7386 16.1849 15.7439 16.1897 15.7489 16.1946C15.8608 16.155 15.9655 16.1147 16.0631 16.0716C15.8208 14.0764 15.9282 12.0181 16.8329 9.87836C16.328 9.74861 15.5584 9.68078 14.7127 9.67013C14.6279 9.66907 14.543 9.66857 14.4581 9.66865V9.66862ZM18.7121 9.88724C17.8036 11.828 17.1583 13.3832 17.0525 15.0621C17.6406 13.0845 18.7773 11.3117 20.0727 10.1728C19.623 10.0596 19.1692 9.9644 18.7121 9.88724V9.88724ZM10.0553 10.4358C9.50474 10.5503 8.96689 10.6956 8.44666 10.8965C8.69982 11.1179 9.15749 11.5299 9.71277 12.0774C9.96834 11.812 10.229 11.5499 10.5008 11.3115C10.3569 11.0173 10.2083 10.7253 10.0553 10.4358V10.4358ZM14.2236 10.6573C13.8238 10.6553 13.4146 10.6669 13.004 10.6956C12.9609 11.1006 12.7234 11.4795 12.4398 11.8522C12.8926 12.9318 13.2838 14.0335 13.6359 15.2032C14.1752 15.3637 14.7087 15.5533 15.1409 15.7806C14.9804 14.5237 15.0023 13.2357 15.2108 11.9762C14.8326 11.5822 14.6356 11.1447 14.6198 10.6636C14.4878 10.66 14.3557 10.6579 14.2236 10.6573V10.6573ZM19.5656 11.4561C18.8398 12.3235 18.2003 13.4099 17.7644 14.5916C18.5646 13.4435 19.5486 12.5479 20.5959 11.9154C20.2547 11.7573 19.9112 11.6042 19.5656 11.4561V11.4561ZM10.7392 11.8102C10.3109 12.2006 9.88766 12.6692 9.44693 13.1156C10.3946 13.6838 11.2017 14.3566 11.8602 15.1187C11.9011 15.1031 11.9424 15.0891 11.9839 15.0763C11.6758 14.0077 11.2535 12.9142 10.7392 11.8102ZM17.5889 15.5034C17.1076 16.0892 16.6546 16.3984 16.0307 16.6452C16.1009 16.9181 15.9967 17.2315 15.7568 17.4712C15.6157 17.6121 15.4383 17.7728 15.1791 17.8772C15.2165 17.8995 15.2547 17.9205 15.2935 17.9402C15.6564 18.1228 16.2975 18.0639 16.893 17.7907C17.4868 17.5183 18.0172 17.0479 18.2138 16.5713C18.3123 16.3034 18.2419 16.1636 18.0694 15.9587C17.9466 15.8129 17.7673 15.6659 17.5889 15.5034V15.5034ZM12.5972 15.5207C12.2827 15.5178 11.9634 15.6093 11.6994 15.8096C11.3241 16.0945 11.0347 16.6026 11.0321 17.4655V17.4714L11.0318 17.4774C10.9461 19.2945 11.0788 20.1329 11.3416 20.5877C11.5736 20.9892 11.9594 21.1814 12.5238 21.5349C12.5506 21.4637 12.5786 21.3761 12.6049 21.2655C12.6717 20.9843 12.727 20.5981 12.7621 20.1709C12.8322 19.3166 12.8219 18.2908 12.7047 17.5526L12.6427 17.1621L13.0247 17.2508C13.9526 17.4661 14.4834 17.4915 14.7915 17.4367C15.0998 17.3818 15.2042 17.2732 15.385 17.0926C15.5549 16.9229 15.5518 16.8618 15.5158 16.7663C15.4798 16.6708 15.3353 16.5133 15.0902 16.3627C14.6 16.0615 13.767 15.7821 12.9884 15.5738C12.8607 15.5398 12.7293 15.5219 12.5972 15.5207V15.5207ZM18.1471 17.5757C17.8532 17.8645 17.4916 18.1015 17.1118 18.2758C16.4959 18.5582 15.8186 18.6875 15.2566 18.4994C15.0582 18.5738 14.9429 18.6594 14.8848 18.7303C14.805 18.8275 14.8 18.899 14.8271 19.0014C14.8541 19.1039 14.9346 19.2255 15.0342 19.313C15.1338 19.4005 15.2522 19.446 15.2972 19.4481C16.6705 19.5139 17.2649 19.1163 18.0054 18.6552C18.2214 18.5208 18.304 18.2484 18.2833 17.9764C18.2729 17.8404 18.2337 17.7126 18.1884 17.6321C18.1772 17.6115 18.1633 17.5926 18.1471 17.5757V17.5757ZM13.2697 17.845C13.3497 18.5871 13.351 19.4529 13.2885 20.2149C13.2519 20.6611 13.1953 21.0669 13.1186 21.3897C13.0853 21.5302 13.0485 21.6548 13.0042 21.7645L17.3096 21.5731C17.261 21.3911 17.2114 21.2083 17.1619 21.0254C16.9965 21.0809 16.8274 21.1247 16.6559 21.1563L16.6572 21.1779L16.4132 21.1933C16.2629 21.2115 16.1064 21.2215 15.9441 21.2226L13.4829 21.3769L13.556 21.0333C13.7893 19.9377 13.8108 18.9731 13.6669 17.9179C13.534 17.8962 13.4016 17.8719 13.2697 17.845H13.2697ZM14.208 17.9837C14.3239 18.929 14.31 19.8313 14.1374 20.802L14.7028 20.7666C14.6141 20.6346 14.5532 20.4857 14.5238 20.3291C14.4857 20.1254 14.5069 19.8987 14.639 19.7112C14.6448 19.7029 14.6511 19.695 14.6574 19.6869C14.5034 19.5435 14.3748 19.3595 14.3165 19.1385C14.2545 18.9034 14.2932 18.6154 14.4779 18.3904C14.5389 18.3161 14.6126 18.2491 14.6992 18.1887C14.6226 18.1271 14.5555 18.0618 14.4975 17.9938C14.4076 17.9944 14.3113 17.9911 14.208 17.9837V17.9837ZM18.1016 19.2207C17.4132 19.6426 16.6398 20.0459 15.2721 19.9804C15.2275 19.9782 15.1831 19.9721 15.1395 19.9622C15.1033 19.9786 15.084 19.9994 15.0696 20.0199C15.0413 20.06 15.0246 20.1324 15.0429 20.2304C15.0795 20.4266 15.2638 20.6416 15.4353 20.6617C16.6499 20.8042 17.4891 20.4034 17.9987 19.9371C18.2335 19.7223 18.2355 19.5848 18.2009 19.4353C18.1836 19.3606 18.1454 19.2882 18.1016 19.2207V19.2207ZM17.9055 20.6731C17.824 20.7247 17.7403 20.7727 17.6547 20.817C17.7031 20.9961 17.7516 21.1753 17.7996 21.3544L18.3842 21.2487C18.2333 21.1188 18.1153 20.9836 18.0205 20.8491C17.9782 20.7891 17.9409 20.7307 17.9055 20.6731Z" fill="#00852B"/>
</svg>
