<svg width="362" height="173" viewBox="0 0 362 173" fill="none" xmlns="http://www.w3.org/2000/svg">
<path d="M66.352 111.005C52.4445 107.317 46.3888 94.9804 33.5076 93.8261C20.6265 92.6717 9.69545 103.608 0.66325 114.111V172.691H361.951V0.0732422C356.871 35.2486 344.451 123.519 329.107 123.519C313.762 123.519 310.016 59.1413 296.263 50.2695C282.509 41.3977 276.145 83.0341 263.418 86.2095C250.691 89.3849 240.581 75.0698 230.574 70.5724C220.567 66.0751 209.636 58.87 197.729 67.6336C185.823 76.3972 179.614 134.138 164.885 143.686C150.156 153.235 145.178 123.519 132.041 118.865C118.903 114.21 113.001 116.218 99.1964 114.693C85.3915 113.168 80.2595 114.693 66.352 111.005Z" fill="url(#paint0_linear_0_430)"/>
<defs>
<linearGradient id="paint0_linear_0_430" x1="181.307" y1="0.0732422" x2="181.307" y2="172.691" gradientUnits="userSpaceOnUse">
<stop stop-color="#3BB346" stop-opacity="0.2"/>
<stop offset="1" stop-color="#3BB346" stop-opacity="0"/>
</linearGradient>
</defs>
</svg>
