<svg width="186" height="77" viewBox="0 0 186 77" fill="none" xmlns="http://www.w3.org/2000/svg">
<path d="M1.45193 76.4919C6.03316 59.7723 11.2912 45.5028 18.1109 42.5722C24.9307 39.6417 27.1432 63.5668 34.7699 59.7723C42.3966 55.9778 45.5723 12.6799 51.4289 9.45342C57.2856 6.22691 61.138 28.0941 68.0879 26.8136C75.0379 25.5332 77.8491 -3.57311 84.7469 2.94015C91.6448 9.45342 94.2738 39.2469 101.406 42.7858C108.538 46.3246 111.844 26.4384 118.065 28.5847C124.286 30.7311 127.696 54.9035 134.724 52.8417C141.752 50.7799 144.407 5.93059 151.383 16.3721C158.359 26.8136 159.686 78.9968 168.042 75.2841C176.397 71.5713 181.265 26.8136 184.701 1.02905" stroke="#4DAEFF" stroke-linejoin="round"/>
</svg>
