<svg width="362" height="161" viewBox="0 0 362 161" fill="none" xmlns="http://www.w3.org/2000/svg">
<path d="M66.352 116.22C51.3154 123.701 46.9533 76.5308 33.5076 82.3086C20.062 88.0863 9.69545 116.22 0.66325 149.183V160.28H361.951V0.40332C355.177 51.2394 345.58 139.482 329.107 146.802C312.633 154.122 310.016 51.2394 296.263 30.6532C282.509 10.067 277.274 98.4906 263.418 102.556C249.562 106.62 242.839 58.9629 230.574 54.7312C218.309 50.4995 211.791 89.7067 197.729 82.7296C183.668 75.7525 178.485 17.0125 164.885 4.17118C151.285 -8.67017 145.743 48.715 132.041 51.2394C118.338 53.7638 110.743 10.6512 99.1964 17.0125C87.6495 23.3738 81.3885 108.739 66.352 116.22Z" fill="url(#paint0_linear_0_431)"/>
<defs>
<linearGradient id="paint0_linear_0_431" x1="181.307" y1="0.40332" x2="181.307" y2="160.28" gradientUnits="userSpaceOnUse">
<stop stop-color="#165DFF" stop-opacity="0.2"/>
<stop offset="1" stop-color="#165DFF" stop-opacity="0"/>
</linearGradient>
</defs>
</svg>
