<svg width="364" height="148" viewBox="0 0 364 148" fill="none" xmlns="http://www.w3.org/2000/svg">
<path d="M1.66325 115.111C10.6955 104.608 21.6265 93.6717 34.5076 94.8261C47.3888 95.9804 53.4445 108.317 67.352 112.005C81.2595 115.693 86.3915 114.168 100.196 115.693C114.001 117.218 119.903 115.21 133.041 119.865C146.178 124.519 151.156 154.235 165.885 144.686C180.614 135.138 186.823 77.3972 198.729 68.6336C210.636 59.87 221.567 67.0751 231.574 71.5724C241.581 76.0698 251.691 90.3849 264.418 87.2095C277.145 84.034 283.509 42.3977 297.263 51.2695C311.016 60.1413 314.762 124.519 330.107 124.519C345.451 124.519 357.871 36.2486 362.951 1.07324" stroke="#0FC6C2" stroke-width="2" stroke-linejoin="round"/>
</svg>
