<svg width="364" height="150" viewBox="0 0 364 150" fill="none" xmlns="http://www.w3.org/2000/svg">
<path d="M1.66325 149.183C10.6955 116.22 21.062 88.0863 34.5076 82.3085C47.9533 76.5308 52.3154 123.701 67.352 116.22C82.3885 108.739 88.6495 23.3738 100.196 17.0125C111.743 10.6512 119.338 53.7638 133.041 51.2394C146.743 48.715 152.285 -8.67017 165.885 4.17118C179.485 17.0125 184.668 75.7525 198.729 82.7296C212.791 89.7067 219.309 50.4995 231.574 54.7312C243.839 58.9629 250.562 106.62 264.418 102.556C278.274 98.4906 283.509 10.067 297.263 30.6532C311.016 51.2394 313.633 154.122 330.107 146.802C346.58 139.482 356.177 51.2394 362.951 0.40332" stroke="#165DFF" stroke-width="2" stroke-linejoin="round"/>
</svg>
