<svg width="186" height="83" viewBox="0 0 186 83" fill="none" xmlns="http://www.w3.org/2000/svg">
<path d="M34.7699 59.7723C27.1432 63.5668 24.9307 39.6417 18.1109 42.5722C11.2912 45.5028 6.03316 59.7723 1.45193 76.4919V82.1203H184.701V1.02905C181.265 26.8136 176.397 71.5713 168.042 75.2841C159.686 78.9968 158.359 26.8136 151.383 16.3721C144.407 5.93059 141.752 50.7799 134.724 52.8417C127.696 54.9035 124.286 30.7311 118.065 28.5847C111.844 26.4384 108.538 46.3246 101.406 42.7858C94.2738 39.2469 91.6448 9.45342 84.7469 2.94015C77.8491 -3.57311 75.0379 25.5332 68.0879 26.8136C61.138 28.0941 57.2856 6.22691 51.4289 9.45342C45.5723 12.6799 42.3966 55.9778 34.7699 59.7723Z" fill="url(#paint0_linear_0_486)" stroke="#4DAEFF" stroke-linejoin="round"/>
<defs>
<linearGradient id="paint0_linear_0_486" x1="93.0764" y1="1.02905" x2="93.0764" y2="82.1203" gradientUnits="userSpaceOnUse">
<stop stop-color="#F5F5F5"/>
<stop offset="1" stop-color="#3896FF" stop-opacity="0"/>
</linearGradient>
</defs>
</svg>
